<svg width="298" height="95" viewBox="0 0 298 95" fill="none" xmlns="http://www.w3.org/2000/svg">
<path d="M217.205 24.0711C214.967 29.3985 200.652 37.9581 200.652 37.9581C200.652 37.9581 196.011 21.3518 198.249 16.0244C198.769 14.7455 199.534 13.582 200.5 12.6013C201.465 11.6206 202.612 10.8421 203.874 10.311C205.135 9.77985 206.487 9.50659 207.85 9.50705C209.213 9.50751 210.56 9.78167 211.814 10.3136C213.068 10.8456 214.203 11.6249 215.154 12.6062C216.106 13.5876 216.854 14.7516 217.355 16.0308C217.857 17.3101 218.102 18.6791 218.077 20.0587C218.052 21.4383 217.756 22.801 217.208 24.0679L217.205 24.0711Z" fill="url(#paint0_linear)"/>
<path d="M216.534 23.9825C214.436 28.9797 201.006 37.0101 201.006 37.0101C201.006 37.0101 196.653 21.433 198.752 16.4358C199.757 14.0421 201.658 12.144 204.036 11.1591C206.414 10.1743 209.075 10.1833 211.433 11.1842C213.791 12.1852 215.652 14.096 216.609 16.4964C217.565 18.8968 217.538 21.5901 216.532 23.9839L216.534 23.9825Z" fill="#F56920"/>
<path d="M212.392 21.371C213.441 18.8724 212.301 16.0019 209.846 14.9596C207.391 13.9173 204.549 15.0979 203.5 17.5966C202.451 20.0953 203.59 22.9658 206.046 24.008C208.501 25.0503 211.343 23.8697 212.392 21.371Z" fill="white"/>
<path d="M42.9743 53.6618H46.3598V71.7636C44.241 73.7903 41.6616 75.3333 38.6216 76.3927C35.6277 77.4521 32.4495 77.9818 29.0871 77.9818C24.2968 77.9818 19.9671 76.9224 16.098 74.8036C12.275 72.6848 9.25798 69.76 7.04707 66.0291C4.88222 62.2982 3.7998 58.1067 3.7998 53.4545C3.7998 48.8024 4.88222 44.6109 7.04707 40.88C9.25798 37.1491 12.275 34.2242 16.098 32.1054C19.9671 29.9867 24.3198 28.9273 29.1562 28.9273C32.7028 28.9273 35.9501 29.503 38.898 30.6545C41.8919 31.76 44.4483 33.3951 46.5671 35.56L44.3562 37.9091C42.3295 35.8824 40.0495 34.4315 37.5162 33.5564C35.0289 32.6351 32.2653 32.1745 29.2253 32.1745C25.0798 32.1745 21.3259 33.0957 17.9634 34.9382C14.6471 36.7806 12.0446 39.337 10.1562 42.6073C8.26768 45.8315 7.32344 49.4473 7.32344 53.4545C7.32344 57.4157 8.26768 61.0315 10.1562 64.3018C12.0907 67.526 14.7162 70.0824 18.0325 71.9709C21.3489 73.8133 25.0798 74.7345 29.2253 74.7345C34.7525 74.7345 39.3356 73.2606 42.9743 70.3127V53.6618ZM93.3028 60.4327H62.2809C62.3731 63.2424 63.087 65.7527 64.4228 67.9636C65.7585 70.1285 67.5549 71.8097 69.8118 73.0073C72.1149 74.2048 74.6943 74.8036 77.55 74.8036C79.8991 74.8036 82.064 74.3891 84.0446 73.56C86.0712 72.6848 87.7524 71.4182 89.0882 69.76L91.0918 72.04C89.5258 73.9285 87.5452 75.3794 85.15 76.3927C82.8009 77.406 80.2446 77.9127 77.4809 77.9127C73.8882 77.9127 70.687 77.1297 67.8773 75.5636C65.0676 73.9976 62.8567 71.8327 61.2446 69.0691C59.6785 66.3054 58.8955 63.1503 58.8955 59.6036C58.8955 56.103 59.6324 52.9709 61.1064 50.2073C62.6264 47.3976 64.6991 45.2097 67.3246 43.6436C69.95 42.0776 72.8979 41.2945 76.1682 41.2945C79.4385 41.2945 82.3634 42.0776 84.9428 43.6436C87.5682 45.1636 89.6179 47.3054 91.0918 50.0691C92.6118 52.8327 93.3718 55.9648 93.3718 59.4654L93.3028 60.4327ZM76.1682 44.3345C73.6349 44.3345 71.3549 44.9103 69.3282 46.0618C67.3015 47.1673 65.6664 48.7564 64.4228 50.8291C63.2252 52.8557 62.5343 55.1588 62.35 57.7382H89.9864C89.8482 55.1588 89.1573 52.8557 87.9137 50.8291C86.67 48.8024 85.0349 47.2133 83.0082 46.0618C80.9815 44.9103 78.7015 44.3345 76.1682 44.3345ZM120.226 77.9127C116.818 77.9127 113.732 77.1297 110.968 75.5636C108.251 73.9976 106.109 71.8327 104.543 69.0691C102.977 66.2594 102.194 63.1042 102.194 59.6036C102.194 56.103 102.977 52.9709 104.543 50.2073C106.109 47.3976 108.251 45.2097 110.968 43.6436C113.732 42.0776 116.818 41.2945 120.226 41.2945C123.635 41.2945 126.698 42.0776 129.415 43.6436C132.179 45.2097 134.344 47.3976 135.91 50.2073C137.476 52.9709 138.259 56.103 138.259 59.6036C138.259 63.1042 137.476 66.2594 135.91 69.0691C134.344 71.8327 132.179 73.9976 129.415 75.5636C126.698 77.1297 123.635 77.9127 120.226 77.9127ZM120.226 74.8036C122.99 74.8036 125.454 74.1588 127.619 72.8691C129.83 71.5794 131.557 69.783 132.801 67.48C134.091 65.177 134.735 62.5515 134.735 59.6036C134.735 56.6557 134.091 54.0303 132.801 51.7273C131.557 49.4242 129.83 47.6279 127.619 46.3382C125.454 45.0485 122.99 44.4036 120.226 44.4036C117.463 44.4036 114.975 45.0485 112.764 46.3382C110.6 47.6279 108.872 49.4242 107.583 51.7273C106.339 54.0303 105.717 56.6557 105.717 59.6036C105.717 62.5515 106.339 65.177 107.583 67.48C108.872 69.783 110.6 71.5794 112.764 72.8691C114.975 74.1588 117.463 74.8036 120.226 74.8036ZM296.064 70.4509C296.341 70.8194 296.571 71.28 296.755 71.8327C296.939 72.3394 297.032 72.823 297.032 73.2836C297.032 74.5273 296.548 75.5636 295.581 76.3927C294.659 77.2218 293.577 77.6364 292.333 77.6364C291.735 77.6364 291.159 77.4982 290.606 77.2218C290.053 76.9454 289.593 76.5539 289.224 76.0473L274.232 56.2873L267.668 62.5745V73.4218C267.668 74.6654 267.253 75.6788 266.424 76.4618C265.641 77.2448 264.605 77.6364 263.315 77.6364C262.072 77.6364 261.035 77.2448 260.206 76.4618C259.423 75.6327 259.032 74.6194 259.032 73.4218V33.4873C259.032 32.2897 259.446 31.2994 260.275 30.5164C261.104 29.6873 262.164 29.2727 263.453 29.2727C264.697 29.2727 265.71 29.6642 266.493 30.4473C267.276 31.2303 267.668 32.2436 267.668 33.4873V52.28L289.777 30.5164C290.836 29.457 291.965 28.9273 293.162 28.9273C294.222 28.9273 295.12 29.3648 295.857 30.24C296.594 31.1151 296.962 32.0364 296.962 33.0036C296.962 33.9709 296.548 34.8691 295.719 35.6982L280.657 50.0691L296.064 70.4509Z" fill="#FAFAFA"/>
<path d="M169.496 29.2727C175.576 29.2727 180.343 30.7236 183.798 33.6254C187.253 36.4812 188.98 40.4654 188.98 45.5782C188.98 50.6448 187.253 54.6291 183.798 57.5309C180.343 60.3867 175.576 61.8145 169.496 61.8145H155.678V77.6364H152.154V29.2727H169.496ZM169.496 58.6364C174.655 58.6364 178.593 57.5079 181.311 55.2509C184.028 52.9939 185.387 49.7697 185.387 45.5782C185.387 41.3867 184.028 38.1624 181.311 35.9054C178.593 33.6024 174.655 32.4509 169.496 32.4509H155.678V58.6364H169.496ZM200.689 41.5709H204.144V77.6364H200.689V41.5709ZM202.416 32.7964C201.633 32.7964 200.965 32.543 200.413 32.0364C199.86 31.4836 199.584 30.8157 199.584 30.0327C199.584 29.2497 199.86 28.5818 200.413 28.0291C200.965 27.4764 201.633 27.2 202.416 27.2C203.199 27.2 203.867 27.4764 204.42 28.0291C204.973 28.5357 205.249 29.1806 205.249 29.9636C205.249 30.7467 204.973 31.4145 204.42 31.9673C203.867 32.52 203.199 32.7964 202.416 32.7964ZM235.079 77.9127C231.578 77.9127 228.446 77.1297 225.682 75.5636C222.919 73.9976 220.754 71.8327 219.188 69.0691C217.622 66.2594 216.839 63.1042 216.839 59.6036C216.839 56.057 217.622 52.9018 219.188 50.1382C220.754 47.3285 222.919 45.1636 225.682 43.6436C228.446 42.0776 231.578 41.2945 235.079 41.2945C237.98 41.2945 240.606 41.8703 242.955 43.0218C245.35 44.1273 247.285 45.7624 248.759 47.9273L246.202 49.7927C244.913 47.9964 243.3 46.6606 241.366 45.7854C239.477 44.8642 237.382 44.4036 235.079 44.4036C232.269 44.4036 229.736 45.0485 227.479 46.3382C225.268 47.5818 223.517 49.3551 222.228 51.6582C220.984 53.9612 220.362 56.6097 220.362 59.6036C220.362 62.5976 220.984 65.246 222.228 67.5491C223.517 69.8521 225.268 71.6485 227.479 72.9382C229.736 74.1818 232.269 74.8036 235.079 74.8036C237.382 74.8036 239.477 74.366 241.366 73.4909C243.3 72.5697 244.913 71.2109 246.202 69.4145L248.759 71.28C247.285 73.4448 245.35 75.103 242.955 76.2545C240.606 77.36 237.98 77.9127 235.079 77.9127Z" fill="#F56920"/>
<defs>
<linearGradient id="paint0_linear" x1="9350.03" y1="11575.1" x2="11156.4" y2="7319.63" gradientUnits="userSpaceOnUse">
<stop stop-color="#808080" stop-opacity="0.25"/>
<stop offset="0.54" stop-color="#808080" stop-opacity="0.12"/>
<stop offset="1" stop-color="#808080" stop-opacity="0.1"/>
</linearGradient>
</defs>
</svg>
